<svg width="157" height="60" viewBox="0 0 157 60" fill="none" xmlns="http://www.w3.org/2000/svg">
<g clip-path="url(#clip0_599_2012)">
<path fill-rule="evenodd" clip-rule="evenodd" d="M93.6468 14.8143C92.7607 13.922 91.7071 13.2094 90.5141 12.6986C89.3167 12.1856 88.0214 11.9269 86.6652 11.9269C85.8423 11.9269 85.0324 12.0255 84.2574 12.2185C83.4824 12.4114 82.74 12.6964 82.0521 13.0647C81.3664 13.4287 80.7242 13.8737 80.1429 14.3846C79.9796 14.5271 79.8229 14.674 79.6705 14.8274V6.60367C79.6705 6.20684 79.5355 5.85167 79.2808 5.57323C79.013 5.28164 78.6473 5.12598 78.225 5.12598C77.8309 5.12598 77.4783 5.27725 77.2061 5.56446C76.9384 5.8429 76.7969 6.20246 76.7969 6.60367V21.8454C76.7969 23.2135 77.0581 24.5201 77.5741 25.726C78.0878 26.9274 78.7997 27.9907 79.6923 28.8896C80.5827 29.7863 81.6341 30.5054 82.8184 31.0316C84.0092 31.5578 85.3045 31.8253 86.663 31.8253C88.0214 31.8253 89.3189 31.5578 90.5184 31.0316C91.7092 30.5076 92.7629 29.7863 93.6489 28.8874C94.535 27.9885 95.2403 26.9252 95.7475 25.7238C96.257 24.5179 96.5138 23.2135 96.5138 21.8476C96.5138 20.4817 96.257 19.1772 95.7475 17.9714C95.2403 16.7699 94.5328 15.7088 93.6468 14.8165V14.8143ZM93.6402 21.8454C93.6402 22.7925 93.4595 23.7089 93.1025 24.564C92.7433 25.4234 92.247 26.1864 91.6287 26.8288C91.0104 27.4689 90.2681 27.9864 89.4212 28.3635C88.5809 28.7384 87.6535 28.9291 86.6652 28.9291C85.6768 28.9291 84.769 28.7384 83.9287 28.3635C83.0797 27.9842 82.333 27.4668 81.7082 26.8244C81.0812 26.182 80.5805 25.419 80.2147 24.5596C79.8534 23.7046 79.6683 22.7903 79.6683 21.8432C79.6683 20.8961 79.8512 19.9489 80.2147 19.1005C80.5783 18.2476 81.079 17.4956 81.7038 16.8664C82.3286 16.2372 83.0753 15.7329 83.9222 15.3668C84.7646 15.0028 85.6877 14.8165 86.6652 14.8165C87.6426 14.8165 88.5657 15.0006 89.4082 15.3646C90.255 15.7329 91.0017 16.2372 91.6265 16.8642C92.2491 17.4912 92.7477 18.241 93.1047 19.0939C93.4617 19.9446 93.6402 20.8676 93.6402 21.841V21.8454Z" fill="white"/>
<path fill-rule="evenodd" clip-rule="evenodd" d="M115.508 14.8164C114.622 13.9241 113.575 13.2137 112.395 12.7029C111.211 12.1899 109.922 11.929 108.564 11.929C107.205 11.929 105.929 12.192 104.732 12.7116C103.541 13.2291 102.485 13.9438 101.593 14.8339C100.7 15.7262 99.9863 16.7917 99.4725 17.9998C98.9566 19.2122 98.6953 20.5211 98.6953 21.8869C98.6953 23.2528 98.9566 24.5398 99.4725 25.7456C99.9863 26.947 100.698 28.0104 101.591 28.9093C102.481 29.8081 103.539 30.5251 104.732 31.0425C105.929 31.5621 107.218 31.8252 108.564 31.8252C109.391 31.8252 110.205 31.7156 110.987 31.5007C111.762 31.288 112.5 30.9855 113.179 30.604C113.856 30.2247 114.496 29.7643 115.077 29.2315C115.24 29.0825 115.399 28.929 115.552 28.7711L115.56 30.0734C115.56 30.4834 115.687 30.8342 115.933 31.1126C116.194 31.4108 116.553 31.5687 116.969 31.5687C117.385 31.5687 117.757 31.4152 118.025 31.1236C118.279 30.8452 118.414 30.4812 118.414 30.0734V21.8014C118.399 20.4355 118.131 19.1376 117.616 17.945C117.102 16.7589 116.392 15.7043 115.508 14.8142V14.8164ZM115.56 21.8869C115.56 22.8341 115.38 23.7439 115.023 24.5946C114.666 25.4474 114.165 26.2082 113.54 26.8484C112.915 27.4886 112.169 28.0038 111.322 28.3743C110.482 28.7448 109.552 28.9312 108.564 28.9312C107.575 28.9312 106.665 28.7448 105.823 28.3743C104.976 28.0016 104.229 27.4886 103.607 26.8484C102.98 26.206 102.477 25.4452 102.113 24.5902C101.752 23.7417 101.569 22.8319 101.569 21.8869C101.569 20.942 101.752 19.9883 102.115 19.1333C102.479 18.2738 102.982 17.5152 103.607 16.8794C104.231 16.2458 104.978 15.7372 105.831 15.3711C106.681 15.0049 107.601 14.8208 108.566 14.8208C109.53 14.8208 110.486 15.0049 111.328 15.3711C112.175 15.7372 112.92 16.2436 113.545 16.8794C114.169 17.5152 114.668 18.2716 115.025 19.1311C115.382 19.9883 115.563 20.9157 115.563 21.8891L115.56 21.8869Z" fill="white"/>
<path fill-rule="evenodd" clip-rule="evenodd" d="M138.453 17.991C138.02 16.84 137.399 15.8227 136.611 14.9677C135.823 14.1104 134.874 13.422 133.79 12.9221C132.699 12.4179 131.48 12.1614 130.169 12.1614C128.859 12.1614 127.651 12.4157 126.534 12.9178C125.426 13.4154 124.448 14.1039 123.628 14.9567C122.807 15.8118 122.156 16.829 121.694 17.9779C121.233 19.1267 121 20.3698 121 21.6677V30.3651C121 30.7794 121.157 31.1434 121.451 31.4174C121.734 31.6805 122.084 31.8208 122.465 31.8208C123.007 31.8208 123.334 31.5775 123.51 31.3736C123.747 31.1039 123.871 30.7531 123.871 30.3629V21.7028C123.871 20.7666 124.035 19.8809 124.355 19.0741C124.675 18.2673 125.123 17.5547 125.685 16.9606C126.244 16.3686 126.913 15.8951 127.675 15.5574C128.432 15.2198 129.27 15.0488 130.169 15.0488C131.069 15.0488 131.889 15.2242 132.623 15.5706C133.363 15.9192 134.007 16.3971 134.534 16.9869C135.066 17.581 135.486 18.2914 135.782 19.0982C136.08 19.9094 136.23 20.7929 136.23 21.7225V30.3629C136.23 30.7728 136.38 31.1346 136.663 31.4086C136.94 31.6783 137.29 31.8208 137.676 31.8208C138.083 31.8208 138.438 31.6717 138.703 31.3933C138.965 31.1214 139.102 30.7641 139.102 30.3651V21.6677C139.102 20.372 138.884 19.1355 138.451 17.9888L138.453 17.991Z" fill="white"/>
<path fill-rule="evenodd" clip-rule="evenodd" d="M156.999 30.3825C156.98 30.0032 156.849 29.6809 156.616 29.4222L148.94 20.6284L154.883 14.9172C155.151 14.6716 155.303 14.3428 155.327 13.9657C155.347 13.6302 155.255 13.3233 155.066 13.0668C155.036 13.001 154.994 12.9418 154.942 12.887C154.674 12.58 154.321 12.4178 153.921 12.4178C153.557 12.4178 153.218 12.5669 152.948 12.8387L144.551 20.9617V6.84028C144.551 6.44126 144.414 6.0839 144.153 5.80985C143.885 5.53141 143.53 5.38232 143.125 5.38232C142.757 5.38232 142.413 5.52264 142.13 5.78573C141.836 6.06197 141.68 6.42592 141.68 6.84028V30.3672C141.68 30.7596 141.828 31.1148 142.104 31.3932C142.383 31.6738 142.736 31.8229 143.125 31.8229C143.515 31.8229 143.863 31.6782 144.135 31.4042C144.407 31.1301 144.551 30.7706 144.551 30.3672V24.8225L146.898 22.5687L154.526 31.3844L154.552 31.4129C154.831 31.6936 155.184 31.8427 155.573 31.8427C155.924 31.8427 156.25 31.7155 156.542 31.4634C156.864 31.1849 157.023 30.8122 156.999 30.3825Z" fill="white"/>
<path fill-rule="evenodd" clip-rule="evenodd" d="M67.6316 22.8933C65.1868 22.8933 63.1992 24.895 63.1992 27.3571C63.1992 29.8192 65.1868 31.8187 67.6316 31.8187C70.0763 31.8187 72.0639 29.817 72.0639 27.3571C72.0639 24.8972 70.0763 22.8933 67.6316 22.8933Z" fill="white"/>
<path fill-rule="evenodd" clip-rule="evenodd" d="M53.2791 16.1341H60.2803C59.9668 7.53763 53.1942 0.578882 44.7148 0.0373535V7.10353C49.3344 7.61436 52.9809 11.4226 53.2791 16.1341Z" fill="white"/>
<path fill-rule="evenodd" clip-rule="evenodd" d="M53.182 18.2717C52.7728 20.8939 51.3185 23.1718 49.2656 24.6561L52.5463 30.9176C56.798 28.1968 59.7478 23.5884 60.2224 18.2717H53.182Z" fill="white"/>
<path fill-rule="evenodd" clip-rule="evenodd" d="M47.4188 25.7062C46.2606 26.2017 44.9893 26.478 43.6548 26.478C38.3342 26.478 34.0064 22.1194 34.0064 16.7611C34.0064 11.7646 37.7704 7.63848 42.5924 7.10353V0.0373535C33.9084 0.589844 27.0117 7.87745 27.0117 16.7611C27.0117 25.6448 34.4788 33.5222 43.6548 33.5222C46.1692 33.5222 48.5508 32.9544 50.6886 31.9459L47.4188 25.7062Z" fill="white"/>
<path fill-rule="evenodd" clip-rule="evenodd" d="M27.208 30.3015C31.5184 27.1444 34.0568 22.1698 34.0568 16.7589C34.0568 7.51781 26.5897 0 17.4137 0C8.23772 0 0.770654 7.51781 0.770654 16.7611C0.770654 25.3532 7.41047 32.6715 15.8964 33.4476C16.1467 33.5024 16.3971 33.5309 16.6431 33.5309C16.6844 33.5309 16.728 33.5265 16.7672 33.5221C22.0289 33.5901 26.2893 37.9223 26.2893 43.2389C26.2893 48.5556 21.9615 52.9557 16.6409 52.9557C11.3203 52.9557 6.99248 48.5972 6.99248 43.2389C6.99248 43.1556 6.9816 43.0745 6.95765 43C6.83574 41.1759 5.32274 39.7311 3.481 39.7311C1.63927 39.7311 0 41.303 0 43.2389C0 52.48 7.46489 60 16.6431 60C25.8213 60 33.2861 52.48 33.2861 43.2389C33.2861 38.2271 31.0351 33.4805 27.2102 30.3036L27.208 30.3015ZM17.4137 7.04206C22.7343 7.04206 27.0621 11.4006 27.0621 16.7589C27.0621 22.1171 22.7343 26.4757 17.4137 26.4757C12.0932 26.4757 7.76532 22.1171 7.76532 16.7589C7.76532 11.4006 12.0932 7.04206 17.4137 7.04206Z" fill="white"/>
</g>
<defs>
<clipPath id="clip0_599_2012">
<rect width="157" height="60" fill="white"/>
</clipPath>
</defs>
</svg>
