<?xml version="1.0" standalone="no"?>
<!DOCTYPE svg PUBLIC "-//W3C//DTD SVG 20010904//EN"
 "http://www.w3.org/TR/2001/REC-SVG-20010904/DTD/svg10.dtd">
<svg version="1.0" xmlns="http://www.w3.org/2000/svg"
 width="512.000000pt" height="512.000000pt" viewBox="0 0 512.000000 512.000000"
 preserveAspectRatio="xMidYMid meet">
<metadata>
Created by potrace 1.14, written by Peter Selinger 2001-2017
</metadata>
<g transform="translate(0.000000,512.000000) scale(0.100000,-0.100000)"
fill="#000000" stroke="none">
<path d="M1244 5100 c-17 -4 -38 -6 -46 -4 -9 1 -19 -4 -22 -12 -3 -7 -12 -11
-21 -8 -8 3 -12 11 -8 17 4 6 -9 0 -28 -13 -19 -14 -35 -24 -36 -22 -7 6 -34
1 -30 -5 3 -5 -7 -9 -22 -10 -51 -4 -86 -13 -89 -23 -2 -5 -17 -10 -33 -10
-18 0 -28 -4 -24 -10 5 -9 -24 -15 -48 -11 -5 1 -6 -3 -3 -8 6 -8 -40 -26 -57
-22 -5 1 -6 -3 -2 -9 6 -10 -7 -14 -34 -11 -7 2 -10 -2 -6 -8 3 -6 1 -11 -5
-11 -6 0 -8 -5 -4 -12 5 -8 0 -7 -11 2 -11 9 -16 10 -11 2 5 -8 -2 -14 -23
-18 -17 -4 -29 -9 -27 -13 2 -3 -2 -11 -9 -18 -11 -10 -15 -10 -18 0 -3 7 -6
5 -6 -5 -1 -19 -34 -41 -45 -31 -3 3 -6 -1 -6 -10 0 -11 -8 -17 -22 -17 -19 0
-20 -2 -8 -10 13 -8 12 -10 -2 -10 -10 0 -18 -4 -18 -10 0 -6 -3 -9 -7 -9 -20
3 -26 -2 -13 -11 13 -8 12 -10 -5 -11 -11 -1 -23 -1 -27 0 -5 0 -8 -6 -8 -14
0 -8 -5 -15 -11 -15 -5 0 -7 -4 -4 -10 3 -6 -4 -10 -17 -10 -18 0 -20 -2 -8
-10 12 -8 10 -10 -8 -10 -14 0 -21 -4 -17 -11 4 -6 -3 -13 -16 -16 -22 -6 -22
-7 -3 -14 16 -7 17 -8 2 -8 -10 -1 -18 -8 -18 -16 0 -8 -7 -15 -15 -15 -9 0
-20 -10 -25 -22 -5 -14 -9 -17 -10 -8 0 13 -2 13 -9 1 -5 -8 -7 -20 -4 -28 3
-7 -2 -13 -11 -13 -9 0 -15 -6 -13 -12 1 -7 -4 -12 -10 -11 -7 2 -13 -6 -13
-17 0 -11 -4 -20 -10 -20 -5 0 -12 -16 -16 -36 -5 -25 -9 -32 -15 -22 -7 10
-9 9 -9 -4 0 -10 -4 -18 -10 -18 -5 0 -10 -9 -10 -20 0 -11 -4 -20 -10 -20 -5
0 -12 -16 -16 -35 -3 -19 -11 -35 -18 -35 -6 0 -4 -5 4 -10 13 -9 13 -10 0
-11 -8 -1 -18 -1 -23 0 -12 2 -8 -17 6 -22 7 -4 6 -6 -5 -6 -11 -1 -15 -7 -10
-23 3 -14 2 -19 -6 -14 -10 6 -16 -26 -11 -60 0 -3 -7 -16 -16 -30 -9 -13 -14
-28 -11 -33 3 -4 -1 -17 -8 -27 -11 -15 -12 -22 -3 -33 9 -12 9 -13 0 -7 -10
5 -13 -2 -13 -26 0 -19 -6 -40 -12 -47 -10 -11 -10 -13 0 -7 6 4 12 2 12 -3 0
-6 -4 -11 -8 -11 -5 0 -9 -24 -9 -52 -1 -29 -2 -53 -3 -53 -5 0 -4 -199 1
-213 4 -9 3 -27 -2 -39 -6 -17 -4 -25 9 -32 12 -7 13 -10 3 -11 -11 0 -11 -3
0 -17 12 -14 12 -15 1 -9 -12 7 -12 4 -2 -14 7 -12 12 -38 12 -56 0 -19 4 -34
9 -34 5 0 9 -18 9 -39 0 -22 5 -41 10 -43 10 -3 18 -32 22 -80 1 -15 6 -24 10
-22 4 3 8 -4 8 -16 0 -12 5 -18 10 -15 6 4 10 -5 10 -19 0 -14 4 -26 9 -26 5
0 11 -14 15 -31 3 -17 10 -28 16 -24 5 3 10 -2 10 -13 0 -10 3 -22 7 -26 5 -4
8 -13 8 -19 1 -7 7 -11 14 -9 9 2 10 -4 6 -19 -5 -16 -4 -19 6 -14 9 6 11 3 6
-8 -4 -11 -1 -17 8 -17 14 0 19 -12 16 -32 0 -5 3 -8 9 -8 5 0 10 -7 10 -16 0
-8 5 -12 10 -9 6 4 13 -7 16 -24 4 -17 12 -31 18 -31 6 0 20 -11 30 -25 10
-13 22 -22 27 -19 5 3 9 -2 9 -10 0 -9 6 -16 13 -16 9 0 8 -3 -2 -9 -9 -6 -10
-11 -2 -15 6 -4 11 -4 11 0 0 4 6 0 13 -11 9 -12 19 -15 28 -10 12 8 12 6 0
-9 -12 -15 -12 -17 0 -14 8 2 13 -3 12 -9 -2 -7 8 -15 22 -19 14 -3 22 -11 18
-17 -4 -6 0 -8 10 -4 9 3 19 2 22 -3 4 -6 1 -10 -6 -10 -7 0 -2 -9 11 -20 12
-11 27 -17 31 -14 5 3 9 -3 9 -13 0 -15 2 -16 10 -3 8 13 10 12 10 -4 0 -12 5
-16 15 -12 8 3 14 2 14 -2 -4 -21 4 -30 31 -35 16 -4 44 -20 61 -37 18 -16 36
-31 40 -31 20 -3 25 -5 37 -12 6 -5 18 -5 25 -1 6 4 9 4 5 -1 -4 -4 -1 -14 7
-21 16 -16 29 -19 20 -4 -3 6 -2 10 3 10 6 0 13 -7 16 -16 3 -8 10 -13 15 -9
5 3 13 -5 17 -17 7 -22 7 -22 15 -3 l8 20 0 -20 c1 -15 3 -17 10 -7 7 11 9 11
14 -2 4 -9 13 -13 22 -10 8 4 15 1 15 -6 0 -9 3 -10 13 -2 10 9 19 7 35 -4 12
-8 22 -12 22 -9 0 3 9 1 20 -5 11 -6 17 -16 14 -22 -4 -7 -3 -8 5 -4 6 4 8 12
4 19 -3 6 7 1 23 -10 21 -15 45 -21 79 -21 28 0 53 -1 58 -2 4 -1 19 -2 35 -3
15 0 30 -5 34 -11 5 -7 8 -7 8 -1 0 10 93 9 120 -2 26 -10 40 -12 35 -3 -6 10
21 7 31 -3 4 -4 18 -7 31 -7 13 0 23 -4 23 -10 0 -5 5 -10 11 -10 5 0 8 4 5 8
-3 5 1 9 9 9 8 0 12 -4 9 -9 -3 -4 2 -8 11 -8 9 0 13 -5 9 -11 -4 -7 1 -7 16
1 15 8 20 8 16 1 -4 -7 1 -11 13 -11 11 0 26 -7 35 -15 9 -9 17 -11 21 -5 3 5
12 10 18 9 9 0 9 -2 -1 -6 -6 -2 -12 -9 -12 -14 0 -6 4 -8 8 -5 5 3 18 -3 29
-14 16 -14 23 -16 32 -7 10 9 12 9 9 -3 -2 -9 6 -16 20 -18 12 -2 22 -10 22
-18 0 -8 8 -18 17 -21 9 -4 31 -21 49 -39 17 -18 34 -30 38 -27 3 3 9 -9 13
-27 5 -29 7 -31 14 -15 7 17 8 18 8 3 1 -10 6 -18 11 -18 6 0 10 -7 10 -16 0
-8 4 -13 9 -10 5 3 12 -5 15 -19 4 -14 13 -25 21 -25 16 0 16 -20 0 -32 -6 -4
-2 -8 8 -8 9 0 17 -5 17 -11 0 -5 4 -7 10 -4 14 9 12 -9 -2 -24 -11 -10 -10
-12 2 -9 10 2 16 -6 18 -25 2 -15 8 -25 13 -22 8 5 15 -42 10 -68 -1 -5 4 -5
10 -1 9 5 10 2 6 -9 -4 -11 -1 -17 8 -17 11 0 15 -11 15 -40 0 -22 5 -40 10
-40 6 0 10 -5 10 -11 0 -5 -4 -8 -8 -5 -5 3 -9 -1 -9 -9 0 -8 4 -12 9 -9 4 3
8 -42 8 -100 0 -78 -3 -106 -12 -106 -9 0 -8 -3 2 -10 14 -9 12 -17 -22 -84
-7 -12 -6 -16 1 -11 6 3 11 1 11 -4 0 -6 -6 -11 -12 -11 -9 0 -8 -4 2 -10 13
-8 13 -10 -2 -10 -12 0 -15 -5 -11 -17 4 -11 3 -14 -5 -9 -8 5 -12 -1 -12 -18
0 -14 -4 -26 -9 -26 -8 0 -26 -66 -22 -83 1 -5 -3 -6 -9 -2 -5 3 -10 -1 -10
-10 0 -10 -5 -13 -12 -9 -8 5 -7 0 2 -11 9 -11 10 -16 3 -11 -9 5 -13 1 -13
-11 0 -15 -2 -16 -10 -3 -7 10 -10 11 -11 3 -1 -7 -3 -17 -4 -23 -1 -5 -3 -15
-4 -21 0 -5 -5 -7 -11 -4 -5 3 -10 -1 -10 -9 0 -9 -4 -16 -10 -16 -5 0 -10 -8
-10 -17 0 -14 -2 -15 -9 -4 -7 10 -11 5 -16 -18 -5 -24 -12 -31 -30 -31 -18 0
-23 -4 -19 -15 4 -9 0 -15 -8 -15 -7 0 -20 -9 -28 -20 -8 -11 -24 -20 -35 -20
-16 0 -17 -2 -5 -10 13 -8 12 -10 -2 -10 -10 0 -18 -4 -18 -9 0 -5 -10 -7 -22
-4 -19 4 -20 3 -8 -6 14 -10 7 -16 -14 -12 -15 3 -36 -21 -29 -33 4 -6 -2 -4
-12 4 -11 9 -16 10 -11 3 4 -8 2 -13 -6 -14 -33 -2 -63 -10 -66 -19 -2 -6 -18
-10 -35 -10 -24 0 -28 -3 -17 -10 11 -7 6 -10 -21 -10 -19 0 -41 -6 -47 -12
-10 -10 -15 -10 -21 1 -6 9 -10 10 -12 2 -3 -7 -38 -12 -94 -12 -132 -2 -167
0 -161 9 3 5 -1 9 -9 9 -8 0 -12 -4 -9 -9 3 -4 -2 -8 -11 -8 -9 0 -13 5 -10
10 3 6 1 10 -4 10 -6 0 -11 -6 -11 -12 0 -8 -3 -9 -8 -3 -12 17 -47 41 -38 28
4 -8 1 -13 -9 -13 -8 0 -18 6 -21 14 -3 8 -14 12 -27 9 -16 -4 -18 -2 -8 5 10
7 0 12 -38 17 -47 6 -56 14 -52 39 1 5 -6 3 -15 -5 -15 -11 -16 -11 -10 0 6 9
5 12 -5 9 -7 -2 -22 5 -32 16 -10 12 -15 14 -11 6 7 -13 5 -13 -9 -1 -9 7 -14
17 -11 22 3 5 -2 6 -10 3 -11 -4 -16 0 -16 10 0 9 -8 16 -20 16 -11 0 -20 7
-20 16 0 8 -3 13 -7 11 -8 -4 -41 26 -46 40 -1 5 -5 7 -9 6 -5 -2 -7 2 -5 9 1
7 -5 13 -13 13 -8 0 -14 6 -13 13 2 7 -5 12 -15 13 -10 0 -12 3 -4 6 6 2 12 9
12 14 0 6 -4 7 -10 4 -5 -3 -10 -2 -10 4 0 5 -9 13 -20 16 -13 4 -20 15 -20
31 0 13 -5 24 -12 24 -6 0 -8 3 -5 7 4 3 -1 12 -11 20 -10 9 -11 12 -2 7 10
-5 9 0 -4 14 -11 12 -15 22 -11 22 5 0 0 7 -11 15 -11 8 -14 15 -6 15 6 0 12
4 12 10 0 5 -6 9 -13 7 -12 -2 -13 4 -16 51 0 13 -6 20 -11 17 -6 -4 -10 14
-10 45 0 40 -3 51 -14 47 -10 -4 -12 0 -9 14 3 10 10 16 17 12 6 -3 6 0 -1 8
-7 7 -13 28 -13 47 0 24 -3 31 -13 26 -9 -6 -9 -5 0 8 7 8 10 18 6 21 -3 4 -1
7 6 7 7 0 9 5 6 10 -4 6 -12 7 -18 3 -7 -4 -5 2 3 12 9 11 10 16 2 11 -7 -4
-12 -1 -12 9 0 10 5 13 13 9 6 -4 5 1 -4 12 -9 10 -15 29 -14 41 1 12 -2 20
-7 17 -4 -3 -11 8 -14 25 -4 17 -10 28 -14 26 -12 -7 -41 25 -35 36 4 5 -1 9
-10 9 -9 0 -13 5 -10 10 5 9 -18 15 -29 8 -2 -2 -14 8 -26 22 -12 14 -18 18
-14 10 5 -10 1 -9 -14 4 -13 11 -37 18 -66 19 -25 0 -43 3 -41 7 2 4 -2 7 -10
7 -8 0 -12 -4 -9 -9 5 -8 -16 -12 -49 -9 -9 1 -24 -5 -33 -13 -9 -9 -20 -14
-25 -11 -5 4 -9 2 -9 -4 0 -5 -10 -13 -22 -17 -13 -4 -38 -23 -56 -43 l-32
-35 3 -286 c4 -296 8 -343 34 -369 9 -9 11 -17 5 -19 -5 -1 -7 -13 -4 -24 5
-21 6 -21 13 -2 6 16 8 14 8 -9 1 -20 5 -26 14 -21 6 4 9 4 5 -1 -4 -4 -2 -15
5 -23 8 -11 8 -13 0 -9 -8 5 -8 1 0 -18 7 -14 15 -25 20 -25 4 0 7 -11 7 -25
0 -14 3 -24 7 -24 5 1 15 1 23 0 13 -1 13 -2 0 -11 -10 -6 -11 -10 -2 -10 6 0
12 -9 12 -19 0 -10 7 -21 15 -25 8 -3 15 -9 14 -13 -4 -22 3 -33 18 -33 9 0
14 -3 10 -6 -3 -4 1 -13 9 -21 8 -8 12 -18 9 -23 -3 -5 0 -12 6 -16 8 -4 9 -3
5 4 -15 24 2 11 19 -14 11 -18 12 -24 4 -18 -12 7 -12 5 -1 -9 8 -9 18 -15 22
-14 4 1 10 -2 12 -8 6 -17 50 -60 59 -58 9 3 12 -9 10 -37 0 -10 1 -11 5 -2 3
6 10 12 15 12 6 0 7 -5 4 -10 -3 -6 2 -10 12 -10 14 0 15 -2 4 -9 -11 -7 -9
-10 8 -16 11 -3 21 -12 21 -18 0 -7 4 -6 10 3 9 13 10 13 11 0 1 -8 1 -18 0
-22 0 -5 6 -8 15 -8 8 0 12 -5 9 -10 -3 -6 3 -10 14 -10 11 0 25 -9 31 -21 7
-11 14 -18 17 -15 3 3 14 -4 24 -15 10 -11 26 -22 36 -24 10 -1 17 -8 16 -14
-2 -6 9 -11 23 -11 14 0 23 -4 19 -10 -3 -5 3 -10 14 -10 12 0 21 -4 21 -10 0
-5 15 -12 34 -16 19 -3 37 -12 40 -19 3 -8 14 -11 28 -8 18 4 20 3 8 -6 -14
-10 -7 -16 14 -12 5 1 13 -3 17 -10 6 -11 18 -13 92 -17 16 -1 25 -6 22 -12
-3 -5 3 -10 15 -10 12 0 18 -4 15 -10 -3 -5 -1 -10 4 -10 6 0 11 5 11 10 0 6
5 10 11 10 5 0 7 -5 4 -10 -4 -6 7 -10 25 -10 17 0 29 -4 26 -8 -4 -7 47 -13
114 -15 8 0 20 -4 27 -9 7 -5 14 -5 18 2 4 7 12 7 26 0 11 -6 16 -16 13 -22
-4 -7 -3 -8 5 -4 6 4 9 12 6 17 -4 5 3 9 15 9 13 0 19 -4 14 -12 -5 -7 -3 -8
6 -3 8 5 48 10 89 11 176 7 244 14 259 26 9 7 13 8 9 2 -3 -6 0 -11 8 -11 8 0
12 4 9 9 -3 4 10 8 28 8 19 0 39 5 46 12 7 7 12 8 12 3 0 -5 7 0 15 11 11 14
14 15 15 4 0 -11 2 -12 8 -3 4 7 25 14 46 17 22 3 42 9 45 14 3 5 20 15 38 22
17 8 30 17 28 20 -2 4 6 6 18 5 12 -1 28 3 36 9 8 6 17 11 20 11 3 0 5 3 4 7
-2 5 8 8 22 8 14 0 25 5 25 10 0 6 7 10 16 10 8 0 13 4 9 9 -3 5 5 12 17 16
39 11 68 28 62 37 -3 4 2 8 11 8 9 0 13 5 10 10 -3 6 -3 10 2 11 45 4 79 31
66 52 -3 6 -1 7 5 3 7 -4 12 -2 12 3 0 6 8 11 19 11 10 0 21 9 24 21 3 11 15
23 26 26 19 5 26 15 22 36 -1 5 3 5 9 2 7 -4 14 2 17 15 4 16 8 18 14 8 6 -9
9 -6 9 10 0 13 4 20 10 17 6 -3 10 2 10 11 0 10 3 14 7 11 10 -10 35 31 27 45
-4 7 -3 8 4 4 7 -4 12 -2 12 4 0 6 5 8 12 4 7 -4 8 -3 4 5 -4 6 -1 14 8 17 8
3 18 19 21 35 4 16 11 29 16 29 5 0 9 7 9 15 0 8 5 15 11 15 7 0 9 9 6 21 -4
16 -3 18 8 9 12 -10 13 -8 10 9 -2 12 0 19 4 16 11 -6 23 23 16 36 -3 4 3 14
15 21 14 9 20 24 21 48 0 29 2 31 9 15 l9 -20 1 20 c1 11 4 29 6 40 2 11 5 28
6 37 1 9 6 14 10 12 4 -3 8 12 8 33 0 28 3 34 10 23 7 -11 10 -5 11 25 1 22 1
44 0 48 -1 5 3 6 9 2 5 -3 10 3 10 14 0 11 5 23 10 26 8 5 8 11 1 19 -7 8 -7
16 0 23 5 5 10 37 11 71 1 40 5 59 12 55 6 -4 6 0 -1 8 -7 9 -8 20 -3 29 5 8
6 19 2 24 -10 16 -9 120 1 134 5 6 6 12 1 12 -5 0 -10 17 -10 38 -3 114 -5
133 -12 128 -5 -3 -9 1 -9 9 0 8 3 12 7 10 4 -2 7 2 7 10 0 8 -4 12 -9 9 -8
-5 -12 9 -9 39 1 9 -3 17 -8 17 -6 0 -11 14 -11 30 0 17 -4 30 -10 30 -5 0
-10 9 -10 19 0 11 -5 23 -10 26 -8 5 -7 12 2 23 10 12 10 14 1 8 -12 -7 -19
12 -14 38 1 5 -7 15 -19 23 -17 12 -18 18 -9 35 10 18 9 20 -5 15 -10 -4 -15
-3 -11 2 3 5 -2 16 -10 24 -18 19 -20 31 -2 22 6 -4 5 -1 -4 7 -9 7 -14 19
-12 25 3 7 -2 16 -11 19 -9 3 -16 15 -16 25 0 10 -4 19 -10 19 -5 0 -7 7 -3
15 3 9 2 15 -3 14 -29 -5 -34 3 -35 56 0 15 -2 16 -8 6 -7 -11 -12 -8 -21 10
-7 13 -21 32 -32 42 -10 10 -15 23 -12 29 4 6 3 8 -3 5 -5 -3 -15 3 -23 13 -8
10 -18 16 -24 13 -5 -4 -7 1 -3 10 3 10 2 17 -4 17 -6 0 -7 5 -4 10 3 6 1 11
-4 11 -6 1 -15 3 -21 4 -5 1 -13 3 -17 4 -5 1 -1 6 7 11 12 8 11 10 -7 10 -16
0 -23 6 -23 20 0 18 -16 25 -42 21 -5 0 -8 8 -8 20 0 11 -4 17 -10 14 -5 -3
-10 -1 -10 4 0 6 5 11 11 11 5 0 8 4 5 9 -3 5 5 12 18 15 14 3 28 15 31 26 6
18 17 24 38 21 4 0 6 4 5 11 -2 7 4 12 12 13 8 1 14 6 12 13 -1 7 8 12 20 12
19 0 20 2 8 10 -13 8 -12 10 3 10 10 0 16 4 12 9 -3 5 4 12 15 16 18 6 25 23
21 48 -1 5 4 5 10 1 7 -4 17 0 23 8 22 29 52 28 70 -3 10 -16 23 -29 31 -29 9
0 12 -6 8 -15 -3 -10 0 -15 8 -13 7 2 18 -7 24 -19 5 -13 16 -23 23 -23 7 0
10 -4 7 -10 -3 -5 -1 -10 6 -10 6 0 20 -10 30 -22 11 -11 19 -17 20 -12 0 5 4
-1 9 -14 6 -14 21 -25 41 -29 18 -3 26 -9 19 -13 -8 -5 -1 -12 18 -21 17 -7
28 -17 26 -21 -5 -7 26 -13 49 -9 6 1 11 -21 8 -41 0 -3 11 -5 24 -3 14 1 25
-1 25 -6 0 -5 7 -6 15 -3 10 4 13 2 10 -8 -4 -9 2 -14 16 -15 12 -1 26 -7 30
-14 4 -7 15 -9 24 -5 13 5 16 2 11 -10 -5 -14 -4 -15 9 -4 13 11 14 10 9 -3
-4 -12 -1 -14 15 -10 15 4 23 -1 30 -18 5 -13 10 -18 10 -11 1 6 9 12 19 12
13 0 14 -2 3 -9 -9 -6 7 -11 48 -16 33 -4 58 -11 55 -16 -3 -5 9 -9 27 -9 20
0 42 -9 57 -22 l25 -23 -13 25 -13 25 26 -24 c16 -15 30 -20 39 -15 19 12 39
14 32 3 -3 -5 -2 -9 3 -10 45 -4 63 -3 63 4 0 4 8 4 18 -1 21 -12 252 -10 270
1 6 5 12 4 12 0 0 -5 14 -9 30 -8 17 0 30 3 30 6 0 4 9 9 20 12 11 3 18 2 16
-2 -3 -4 4 -7 14 -7 10 0 16 5 13 10 -4 5 1 7 11 3 14 -6 17 -3 12 10 -5 16
-5 16 6 2 13 -16 43 -15 33 1 -3 4 4 6 15 3 12 -3 20 0 20 6 0 7 4 10 9 6 5
-3 12 -1 16 5 3 5 19 10 36 10 16 0 29 5 29 13 0 8 4 7 10 -3 9 -13 12 -13 21
3 9 15 13 16 27 5 9 -7 13 -8 10 -3 -4 6 2 17 14 24 16 10 19 10 13 -1 -3 -7
2 -3 13 9 11 12 23 19 27 15 3 -4 5 0 3 8 -2 8 -11 21 -21 29 -10 7 -16 19
-13 27 3 8 1 14 -4 14 -5 0 -7 6 -4 14 3 8 -6 26 -21 40 -15 15 -20 26 -13 26
7 1 2 7 -11 14 -18 10 -20 15 -10 19 9 3 9 6 2 6 -7 1 -15 17 -19 36 -3 19
-10 38 -15 41 -5 3 -6 -3 -2 -13 8 -23 -1 -15 -17 16 -10 19 -10 22 2 15 7 -4
5 2 -5 13 -9 11 -14 23 -10 26 3 4 -1 7 -10 7 -9 0 -16 3 -16 8 1 4 1 21 -1
37 -1 26 -3 27 -10 10 -8 -18 -9 -17 -9 8 -1 15 -5 27 -11 27 -5 0 -10 9 -10
21 0 11 -4 17 -10 14 -5 -3 -10 3 -10 14 0 12 -4 21 -10 21 -5 0 -9 5 -7 11 3
18 -36 19 -62 2 -17 -11 -21 -12 -16 -2 6 11 5 12 -6 2 -7 -7 -24 -13 -37 -13
-13 0 -20 -4 -17 -10 4 -6 -7 -10 -27 -10 -24 0 -29 -3 -18 -10 12 -7 10 -9
-7 -7 -12 0 -20 4 -18 7 2 3 -6 7 -18 7 -13 1 -17 -1 -10 -5 7 -4 -30 -8 -82
-8 -52 -1 -92 2 -90 5 2 4 -6 8 -18 8 -16 2 -18 0 -8 -6 10 -7 7 -9 -12 -8
-14 1 -23 5 -20 10 4 7 -19 11 -46 8 -8 -2 -10 3 -6 11 6 10 5 10 -5 1 -10 -9
-16 -8 -28 3 -8 8 -21 13 -29 10 -9 -4 -11 -2 -7 6 5 8 2 9 -9 5 -10 -3 -17
-3 -17 2 0 5 -6 9 -12 8 -7 0 -24 1 -38 2 -20 1 -22 3 -10 11 11 7 6 10 -20
10 -26 0 -31 3 -20 10 13 8 12 10 -2 10 -10 0 -18 5 -18 10 0 6 -7 10 -16 10
-8 0 -22 7 -30 15 -9 8 -25 15 -37 15 -18 0 -19 2 -7 10 13 8 12 10 -2 10 -10
0 -18 5 -18 11 0 5 -4 7 -10 4 -5 -3 -10 1 -10 9 0 9 -5 16 -10 16 -11 0 -75
58 -75 68 0 4 -3 6 -7 4 -5 -1 -8 5 -8 14 0 8 -4 12 -10 9 -5 -3 -10 3 -10 15
0 12 -4 19 -9 16 -8 -5 -26 40 -23 57 1 4 -4 6 -10 5 -7 -2 -12 3 -10 10 1 6
-3 12 -10 12 -6 0 -8 3 -4 7 3 4 -4 13 -16 20 -21 11 -22 12 -3 13 18 1 19 1
3 11 -10 5 -18 19 -18 29 0 11 -5 20 -12 20 -9 0 -9 3 0 12 7 7 12 17 12 23 0
5 -5 3 -10 -5 -8 -12 -10 -11 -10 8 0 12 -4 22 -10 22 -5 0 -10 14 -10 30 0
17 -5 30 -10 30 -6 0 -11 19 -10 43 0 23 0 98 0 166 0 84 4 129 12 139 10 12
10 14 1 8 -9 -5 -11 -2 -7 8 3 9 11 16 16 16 6 0 5 6 -2 15 -10 12 -9 16 4 21
9 3 16 16 16 28 0 17 2 18 10 6 5 -8 10 -10 10 -5 0 6 -6 17 -12 24 -8 8 -8
11 -2 8 7 -4 14 8 18 34 4 22 11 37 16 34 9 -6 14 8 11 28 0 4 3 7 9 7 5 0 10
7 10 15 0 9 11 26 25 39 14 13 25 30 25 37 0 8 9 21 20 29 14 10 16 16 7 22
-8 5 -7 8 4 8 9 0 20 7 23 16 3 9 13 14 21 11 9 -4 12 -1 8 9 -3 9 1 14 12 14
9 0 14 4 10 9 -3 5 4 12 15 16 12 4 17 11 13 18 -4 7 1 6 11 -2 9 -8 16 -10
15 -5 -4 22 2 34 17 34 8 0 13 4 9 9 -3 5 -1 12 5 16 5 3 10 1 10 -4 0 -13 41
8 53 27 5 7 12 10 18 7 5 -4 9 -1 9 4 0 6 12 11 28 11 18 0 23 3 14 9 -9 5 0
10 28 15 28 4 39 10 34 19 -5 9 -4 9 7 0 16 -15 33 -17 24 -3 -3 6 1 11 9 11
29 3 34 4 42 12 4 4 12 7 18 7 6 0 4 -5 -4 -10 -8 -5 -10 -10 -4 -10 5 0 14 4
20 10 5 5 21 11 35 12 25 2 26 5 28 72 1 39 7 73 13 77 7 4 5 8 -3 11 -12 5
-12 9 -1 28 8 12 9 19 4 16 -6 -3 -10 32 -11 89 -1 72 1 95 11 95 9 0 9 3 -2
10 -13 8 -13 13 -2 31 8 11 9 18 3 15 -6 -4 -10 21 -10 66 0 40 0 79 0 86 -1
8 -11 11 -28 8 -16 -2 -52 -5 -81 -5 -32 -1 -51 -5 -47 -11 3 -6 -1 -7 -9 -4
-9 3 -16 1 -16 -6 0 -6 -4 -9 -9 -5 -5 3 -13 1 -16 -5 -5 -8 -12 -7 -23 2 -12
10 -14 10 -8 1 7 -13 -6 -17 -54 -14 -20 2 -22 0 -10 -8 12 -8 6 -11 -22 -12
-58 -2 -63 -4 -60 -19 3 -11 0 -11 -14 1 -12 9 -15 9 -10 2 5 -9 -1 -13 -19
-13 -15 0 -24 -4 -20 -10 3 -5 0 -10 -8 -10 -8 0 -28 -7 -43 -15 -16 -8 -37
-15 -46 -15 -10 0 -18 -4 -18 -10 0 -5 -8 -10 -17 -10 -23 -1 -63 -30 -42 -31
8 0 -1 -5 -20 -11 -38 -11 -63 -32 -53 -44 4 -5 -2 -2 -12 6 -11 8 -17 10 -13
4 9 -15 -10 -30 -47 -40 -20 -5 -24 -9 -14 -15 10 -7 9 -9 -5 -9 -10 0 -15 -4
-12 -10 3 -5 -1 -10 -9 -10 -9 0 -16 -5 -16 -11 0 -5 -4 -7 -10 -4 -5 3 -10
-2 -10 -11 0 -10 -3 -15 -6 -11 -10 9 -47 -30 -39 -42 3 -7 -2 -11 -15 -11
-12 0 -18 -4 -15 -10 6 -9 -8 -14 -27 -11 -5 0 -8 -6 -8 -14 0 -8 -8 -15 -17
-16 -15 0 -15 -2 2 -9 17 -7 17 -9 3 -9 -10 -1 -18 -8 -18 -16 0 -9 -6 -12
-15 -9 -10 4 -13 2 -10 -8 4 -9 0 -15 -9 -15 -8 0 -13 4 -10 9 3 4 -2 8 -11 8
-9 0 -14 4 -10 9 3 5 0 13 -6 17 -7 4 -9 3 -5 -4 3 -6 2 -13 -4 -17 -5 -3 -10
1 -10 9 0 9 -4 16 -10 16 -5 0 -9 3 -8 8 3 14 -14 42 -23 36 -5 -3 -9 3 -9 13
0 15 -2 16 -10 3 -8 -13 -10 -12 -10 3 0 10 -4 15 -10 12 -5 -3 -10 3 -10 14
0 14 -9 23 -26 27 -16 4 -22 9 -14 14 8 5 7 9 -4 13 -9 4 -16 1 -17 -6 0 -7
-5 0 -11 16 -5 15 -14 25 -19 21 -5 -3 -9 2 -9 11 0 9 -4 13 -10 10 -5 -3 -10
-1 -10 4 0 6 -7 11 -15 11 -8 0 -15 5 -15 10 0 6 -6 10 -14 10 -8 0 -18 10
-21 21 -5 15 -10 18 -15 9 -5 -8 -9 -7 -14 5 -3 9 -10 13 -16 10 -5 -3 -10 -1
-10 5 0 6 -4 9 -9 5 -5 -3 -17 2 -26 12 -25 24 -78 51 -92 46 -7 -3 -13 2 -13
11 0 12 -10 16 -36 16 -21 0 -33 4 -29 10 3 6 -3 10 -15 10 -13 0 -19 4 -14
12 4 7 3 8 -4 4 -6 -4 -24 -1 -39 7 -15 8 -34 12 -41 10 -7 -3 -19 0 -27 7 -7
6 -24 10 -37 8 -16 -2 -22 1 -20 11 3 12 0 12 -12 2 -10 -8 -16 -9 -21 -1 -3
5 -15 10 -26 10 -11 0 -18 4 -15 8 6 10 1 11 -224 15 -107 3 -209 1 -226 -3z
m71 -590 c-3 -5 1 -10 10 -10 10 0 13 5 9 13 -5 7 0 6 11 -3 11 -9 16 -10 11
-2 -4 7 -1 12 9 12 9 0 13 -4 10 -10 -3 -5 -2 -10 4 -10 5 0 11 5 13 12 3 8
11 9 24 3 25 -11 64 -13 58 -3 -3 4 2 8 11 8 10 0 14 -5 9 -12 -6 -10 -4 -10
7 0 7 6 18 12 24 12 5 0 3 -5 -5 -10 -12 -8 -10 -10 10 -11 14 -1 31 -1 39 0
8 2 10 -2 5 -11 -6 -10 -3 -9 10 1 13 11 20 11 28 3 15 -15 31 -16 23 -1 -4 6
2 5 13 -2 12 -7 18 -18 14 -24 -3 -5 3 -3 13 5 10 8 16 10 12 4 -4 -8 8 -14
34 -18 22 -4 51 -13 63 -21 12 -8 26 -12 31 -8 4 5 5 2 1 -4 -5 -9 0 -13 13
-13 12 0 21 -7 21 -15 0 -8 3 -14 8 -14 22 4 42 -2 37 -11 -3 -5 -1 -10 5 -10
16 0 40 -26 32 -35 -4 -4 -2 -6 3 -5 6 1 21 -1 33 -5 18 -6 20 -10 10 -16 -9
-6 -6 -9 12 -10 14 0 19 -3 13 -6 -22 -8 -14 -21 9 -15 14 3 19 2 14 -6 -4 -7
-2 -12 5 -12 7 0 10 -3 6 -6 -3 -4 0 -13 8 -20 17 -17 29 -18 19 -2 -4 6 -3 8
4 4 6 -3 9 -15 7 -26 -2 -13 2 -20 11 -20 8 0 14 -6 14 -14 0 -8 7 -16 15 -20
8 -3 15 -16 15 -30 0 -16 7 -27 20 -31 11 -4 20 -15 20 -26 0 -11 5 -17 10
-14 14 9 12 -8 -2 -24 -10 -11 -10 -13 0 -7 11 6 17 -11 13 -36 0 -5 6 -8 14
-8 8 0 15 -5 15 -11 0 -5 -4 -8 -8 -5 -5 3 -9 -1 -9 -9 0 -8 3 -14 6 -13 19 2
22 -4 10 -19 -12 -14 -12 -16 2 -11 12 5 16 -3 18 -41 1 -25 6 -47 12 -49 5
-2 9 -8 9 -13 0 -6 -3 -8 -7 -6 -5 3 -9 -6 -10 -20 -1 -19 1 -22 8 -12 7 11 9
9 9 -7 0 -11 -5 -25 -12 -32 -9 -9 -9 -12 0 -12 7 0 12 -9 12 -21 0 -13 -4
-18 -12 -13 -7 4 -10 4 -6 -1 4 -4 3 -14 -3 -21 -7 -8 -6 -14 2 -20 8 -4 9 -3
5 4 -4 7 -2 12 3 12 6 0 11 -9 11 -21 0 -13 -4 -18 -12 -13 -7 5 -8 3 -2 -7
15 -24 13 -38 -4 -31 -15 5 -15 3 -4 -10 8 -10 9 -19 3 -22 -5 -4 -8 -15 -6
-26 2 -11 0 -20 -4 -20 -5 0 -11 -11 -13 -25 -4 -16 -1 -22 6 -18 6 4 5 -1 -3
-10 -7 -9 -11 -23 -8 -31 4 -10 1 -13 -9 -9 -10 4 -15 0 -14 -8 5 -33 0 -50
-12 -43 -10 6 -10 4 0 -8 11 -14 10 -18 -7 -28 -12 -6 -21 -21 -21 -33 0 -18
-2 -19 -10 -7 -8 12 -10 11 -10 -7 0 -13 -6 -23 -12 -23 -9 0 -8 -4 2 -10 13
-9 13 -10 -1 -10 -8 0 -24 -17 -35 -37 -11 -21 -27 -38 -34 -38 -8 0 -16 -6
-16 -12 -1 -7 -2 -17 -3 -23 0 -5 -8 -10 -17 -10 -8 0 -12 -4 -9 -10 3 -5 1
-11 -4 -11 -6 -1 -17 -2 -23 -3 -7 -1 -12 -7 -11 -14 2 -7 -4 -12 -12 -12 -8
0 -15 -7 -15 -16 0 -8 -4 -12 -10 -9 -5 3 -10 -1 -10 -9 0 -10 -6 -13 -15 -10
-8 4 -15 1 -15 -6 0 -6 -4 -8 -10 -5 -5 3 -10 1 -10 -4 0 -6 -10 -11 -22 -11
-19 0 -20 -2 -8 -10 13 -8 12 -10 -2 -10 -10 0 -18 -6 -19 -12 0 -10 -2 -10
-6 0 -3 8 -10 6 -21 -9 -16 -19 -50 -30 -95 -30 -9 0 -15 -4 -12 -8 2 -5 -4
-11 -15 -14 -11 -3 -23 -6 -25 -7 -46 -15 -65 -17 -75 -7 -10 9 -12 8 -7 -5 6
-17 -8 -19 -32 -4 -9 6 -12 5 -8 0 3 -6 -15 -11 -41 -12 -28 -1 -49 3 -54 11
-6 9 -8 9 -8 0 0 -7 -12 -13 -26 -13 -16 0 -23 4 -18 11 5 8 1 8 -14 0 -27
-14 -35 -14 -26 1 5 7 3 8 -7 2 -22 -13 -38 -13 -33 1 4 9 -2 11 -20 8 -15 -3
-34 1 -43 8 -14 12 -16 12 -8 -1 7 -12 5 -12 -11 1 -10 9 -25 14 -33 11 -8 -3
-11 0 -7 6 4 6 -1 11 -11 11 -10 0 -27 2 -38 5 -11 2 -24 5 -28 5 -5 1 -6 5
-3 9 2 4 -5 9 -17 9 -12 1 -23 7 -25 13 -2 5 -13 10 -25 10 -18 0 -19 2 -7 10
12 8 9 10 -13 10 -16 0 -26 4 -23 9 6 8 -30 25 -47 22 -5 -1 -6 3 -2 9 3 5 1
10 -5 10 -6 0 -8 5 -5 10 6 9 -17 15 -40 10 -5 -1 -7 1 -3 5 9 9 -23 45 -42
45 -13 0 -13 1 0 10 12 8 10 10 -8 10 -13 0 -21 4 -18 9 4 5 -6 19 -21 30 -16
11 -22 21 -15 21 8 0 6 6 -5 18 -10 11 -21 17 -25 15 -5 -2 -8 2 -9 9 -2 34
-9 52 -24 60 -8 5 -13 13 -10 19 4 5 1 9 -4 9 -6 0 -11 7 -11 16 0 8 -4 13 -8
10 -4 -2 -8 3 -9 12 -2 25 -8 45 -16 60 -5 6 -5 17 -2 22 3 6 -1 13 -10 16
-13 6 -14 8 -3 15 9 6 10 9 1 9 -7 0 -10 7 -6 17 4 10 2 14 -4 10 -6 -4 -13 5
-15 23 -3 17 -1 30 4 30 5 0 6 5 3 10 -4 6 -12 7 -18 4 -8 -5 -8 -3 1 7 13 14
17 53 4 45 -10 -6 -9 95 1 112 5 7 3 12 -5 13 -10 0 -10 2 0 6 6 2 12 9 12 14
0 6 -6 7 -12 3 -9 -6 -9 -3 0 9 8 9 14 36 14 61 0 25 4 48 9 51 5 4 14 15 19
25 9 16 8 19 -7 13 -17 -5 -17 -5 -1 8 15 12 24 36 27 72 1 5 5 6 10 3 5 -3 8
2 7 12 0 10 5 16 13 14 11 -2 12 0 3 11 -10 11 -9 17 1 26 8 6 17 8 20 4 4 -3
7 6 7 21 0 15 4 25 9 22 5 -4 7 4 4 16 -4 19 -3 20 6 8 10 -13 11 -13 12 0 1
8 1 19 0 23 -1 5 3 6 8 3 5 -4 12 -2 16 4 3 5 0 10 -7 11 -7 0 -5 4 5 8 10 4
18 10 18 14 -1 11 45 57 58 57 10 0 15 13 12 32 0 4 15 10 35 14 20 4 32 9 26
13 -6 3 -3 12 6 21 9 8 18 14 19 13 8 -8 23 -2 18 7 -3 6 -1 11 4 11 32 4 36
6 34 15 -1 5 8 11 20 11 12 1 23 7 26 14 2 8 6 7 12 -2 6 -10 9 -7 10 11 0 14
3 19 6 13 2 -7 9 -13 14 -13 6 0 7 4 4 10 -3 5 12 12 35 16 22 4 40 11 40 16
0 5 12 7 28 6 18 -2 26 1 24 10 -2 10 2 10 19 1 15 -8 19 -8 15 0 -4 7 1 11
13 11 11 0 23 5 26 10 3 6 8 10 11 10 3 0 2 -4 -1 -10z m-115 -2215 c0 -1 -15
-2 -32 -2 -26 -1 -29 1 -13 7 17 6 45 3 45 -5z"/>
<path d="M631 3874 c0 -11 3 -14 6 -6 3 7 2 16 -1 19 -3 4 -6 -2 -5 -13z"/>
<path d="M2221 3874 c0 -11 3 -14 6 -6 3 7 2 16 -1 19 -3 4 -6 -2 -5 -13z"/>
<path d="M3757 5098 c-9 -6 -9 -12 1 -29 8 -11 9 -18 4 -15 -5 3 -12 -6 -15
-19 -3 -17 1 -29 12 -35 10 -6 11 -10 4 -10 -8 0 -13 -13 -13 -29 0 -16 6 -32
13 -34 10 -4 10 -6 0 -6 -8 -1 -13 -15 -13 -35 0 -19 6 -37 13 -39 10 -4 10
-6 0 -6 -7 -1 -13 -12 -13 -25 0 -13 6 -27 13 -29 10 -4 10 -6 0 -6 -8 -1 -13
-17 -13 -45 0 -26 5 -46 13 -49 10 -4 10 -6 0 -6 -9 -1 -13 -19 -13 -57 0 -30
4 -53 8 -50 5 3 9 -1 9 -9 0 -8 -4 -12 -9 -9 -4 3 -8 -4 -8 -16 0 -12 4 -19 9
-15 5 3 12 1 15 -4 4 -5 -2 -12 -11 -14 -10 -3 -4 -5 14 -4 17 1 37 -4 45 -10
19 -15 58 -23 58 -11 0 5 7 2 16 -6 8 -9 26 -16 39 -16 34 0 56 -10 48 -24 -4
-6 2 -4 12 4 11 9 16 10 11 3 -5 -9 0 -13 13 -13 12 0 21 -4 21 -10 0 -5 9
-10 20 -10 11 0 19 -6 18 -12 -2 -7 3 -12 10 -10 21 4 79 -36 85 -58 3 -11 9
-20 14 -19 20 3 34 -2 28 -11 -3 -5 -1 -10 5 -10 6 0 8 -5 5 -10 -4 -6 -3 -10
2 -9 22 4 33 -3 33 -18 0 -16 2 -16 11 -3 9 12 10 11 6 -5 -5 -24 18 -52 26
-32 3 7 6 -1 6 -16 1 -16 5 -26 11 -22 6 3 10 -1 10 -9 0 -9 7 -16 16 -16 8 0
12 -5 9 -11 -4 -6 1 -17 11 -25 11 -9 14 -13 8 -10 -6 3 -11 -1 -11 -8 0 -8 6
-12 13 -9 9 3 11 -3 7 -19 -4 -18 -3 -20 6 -8 9 13 11 13 11 -2 0 -10 4 -18
10 -18 5 0 7 -7 4 -15 -4 -8 -2 -15 3 -15 5 0 10 -12 11 -27 1 -16 7 -29 12
-31 6 -2 10 -14 10 -26 0 -12 5 -27 12 -34 8 -8 8 -15 -2 -27 -11 -13 -11 -16
0 -13 11 2 14 -6 11 -29 -2 -22 2 -33 11 -33 10 0 9 -3 -2 -10 -10 -6 -11 -10
-2 -10 6 0 12 -7 12 -16 0 -8 5 -12 10 -9 6 3 10 3 10 -2 0 -8 190 -8 223 1 9
2 17 1 17 -2 0 -9 133 -8 146 1 6 3 16 2 23 -3 8 -4 27 -4 42 0 16 5 29 6 29
2 0 -4 19 -6 43 -4 l44 4 -4 71 c-2 39 -9 77 -16 86 -9 12 -9 13 1 7 7 -4 12
-1 12 9 0 10 -5 13 -12 9 -8 -5 -7 0 2 11 9 11 10 16 3 11 -10 -5 -13 5 -14
41 -1 26 -1 52 0 56 1 5 -3 6 -9 2 -5 -3 -10 3 -10 14 0 12 -4 21 -9 21 -5 0
-11 17 -14 38 -9 73 -40 152 -60 152 -6 0 -8 3 -4 6 8 8 -13 64 -24 64 -5 0
-9 9 -9 20 0 11 -4 20 -10 20 -5 0 -10 9 -10 21 0 11 -4 17 -10 14 -5 -3 -11
-1 -11 4 -1 6 -3 16 -4 21 -1 6 -3 15 -4 21 0 5 -5 7 -11 4 -5 -3 -10 3 -10
15 0 14 -4 19 -12 14 -8 -5 -9 -2 -5 9 6 16 -3 22 -26 18 -4 -1 -7 4 -6 11 3
27 -1 38 -16 38 -17 0 -37 34 -27 45 4 5 2 5 -5 1 -12 -7 -36 26 -28 38 3 3 2
4 -1 1 -4 -2 -13 3 -21 11 -8 8 -19 11 -25 8 -7 -4 -8 -2 -4 4 4 7 2 12 -4 12
-6 0 -8 5 -5 10 3 6 -2 10 -12 10 -15 0 -16 2 -3 10 12 8 11 10 -7 10 -13 0
-23 5 -23 11 0 5 -4 8 -9 5 -5 -3 -12 5 -15 19 -4 14 -12 24 -19 22 -6 -1 -11
3 -10 10 2 7 -6 10 -17 8 -12 -2 -18 0 -15 5 3 5 -4 11 -15 15 -11 3 -20 10
-20 15 0 4 -9 10 -20 13 -11 3 -20 12 -20 20 0 10 -14 18 -40 22 -24 4 -44 14
-50 26 -6 10 -17 19 -25 19 -12 0 -74 29 -85 40 -3 3 -12 6 -20 8 -8 2 -16 8
-18 13 -2 5 -16 9 -32 9 -16 0 -30 5 -32 10 -3 11 -49 23 -81 22 -9 0 -15 3
-12 9 4 5 -12 9 -34 9 -23 0 -41 4 -41 9 0 6 -9 8 -20 6 -14 -3 -20 2 -20 13
0 10 -3 13 -8 7 -9 -13 -35 -18 -27 -5 4 6 -7 10 -27 11 -18 0 -50 2 -71 3
-20 1 -43 -1 -50 -6z"/>
<path d="M4145 4340 c3 -5 8 -10 11 -10 2 0 4 5 4 10 0 6 -5 10 -11 10 -5 0
-7 -4 -4 -10z"/>
<path d="M4482 3558 c-7 -7 -12 -25 -12 -41 0 -19 -4 -26 -12 -21 -7 5 -8 3
-2 -7 11 -18 14 -39 6 -36 -4 1 -8 -2 -9 -7 -1 -5 -6 -12 -13 -16 -9 -6 -15
-33 -22 -97 -1 -7 -4 -11 -7 -10 -3 1 -6 0 -6 -3 0 -13 -31 -37 -40 -32 -5 3
-3 -3 5 -13 9 -11 10 -16 2 -11 -8 5 -14 -2 -19 -24 -3 -19 -9 -27 -13 -20 -5
8 -9 7 -14 -5 -3 -9 -3 -21 0 -26 3 -5 0 -8 -8 -7 -7 2 -12 -3 -10 -11 3 -12
0 -12 -13 -1 -13 11 -15 10 -9 -4 3 -9 1 -16 -4 -16 -6 0 -14 -9 -17 -20 -3
-11 -11 -20 -17 -20 -5 0 -19 -11 -30 -25 -11 -14 -27 -25 -36 -25 -15 0 -15
-2 -2 -10 13 -8 12 -10 -5 -11 -11 -1 -23 -1 -26 -1 -11 2 3 -42 15 -50 7 -5
6 -8 -4 -8 -12 0 -12 -2 -2 -9 7 -4 14 -17 15 -28 0 -11 8 -20 16 -19 8 1 17
-8 19 -19 2 -11 9 -23 16 -27 7 -5 7 -8 -3 -8 -10 0 -11 -3 -2 -13 6 -8 8 -17
4 -20 -6 -7 12 -11 30 -8 5 1 5 -3 2 -9 -4 -6 0 -19 7 -28 22 -25 33 -46 20
-39 -6 5 -6 -2 1 -18 7 -14 15 -25 20 -25 4 0 7 -10 7 -22 0 -19 2 -20 10 -8
8 12 10 9 10 -13 0 -16 4 -26 9 -23 5 3 12 -13 15 -36 5 -32 9 -39 16 -28 8
12 10 10 10 -7 0 -13 5 -23 11 -23 6 0 9 -9 6 -19 -3 -14 2 -20 21 -24 30 -6
54 1 46 14 -3 5 0 9 7 9 6 0 20 9 30 21 10 11 23 18 28 14 6 -3 11 -1 11 4 0
6 10 11 23 11 12 0 17 3 11 8 -7 4 -1 16 17 33 15 15 30 24 33 21 3 -3 6 0 6
7 0 7 4 10 9 7 5 -3 12 5 15 18 3 13 22 33 41 45 19 11 35 25 35 32 0 6 13 23
29 38 15 14 31 36 35 49 7 20 18 27 39 23 5 -1 6 3 3 8 -4 5 -1 13 5 16 5 4 8
13 5 21 -3 8 -1 14 4 14 6 0 18 18 27 40 10 22 21 40 25 40 5 0 8 6 8 14 0 8
4 16 10 18 9 3 17 32 19 68 1 13 2 13 12 0 9 -12 10 -11 6 8 -3 12 -1 22 4 22
4 0 5 7 2 17 -4 11 -3 14 5 9 7 -4 12 -1 12 8 0 9 4 16 8 16 4 0 9 8 10 18 2
17 9 53 12 62 1 3 2 13 1 23 -1 9 3 17 8 17 6 0 11 12 11 26 0 15 4 23 10 19
6 -4 10 -3 9 2 -1 4 -1 30 0 56 1 36 4 46 14 41 7 -5 6 0 -3 11 -9 11 -10 16
-2 11 9 -5 12 7 12 48 l0 56 -42 0 c-31 0 -39 -3 -28 -10 12 -7 10 -9 -7 -7
-12 0 -19 5 -17 9 3 4 -16 8 -41 8 -34 0 -44 -3 -39 -12 6 -10 4 -10 -7 0 -14
13 -53 17 -45 4 3 -5 -1 -9 -9 -9 -8 0 -12 4 -9 9 3 4 -9 8 -26 8 -17 0 -29
-4 -26 -9 7 -10 -20 -9 -30 2 -11 10 -56 8 -50 -2 7 -10 -20 -9 -30 2 -11 10
-56 8 -50 -2 7 -10 -9 -8 -38 4 -11 5 -26 3 -38 -4 -12 -7 -17 -8 -13 -2 9 15
-28 14 -43 -1z"/>
<path d="M4670 2689 c0 -5 5 -7 10 -4 6 3 10 8 10 11 0 2 -4 4 -10 4 -5 0 -10
-5 -10 -11z"/>
<path d="M3308 2303 c7 -3 16 -2 19 1 4 3 -2 6 -13 5 -11 0 -14 -3 -6 -6z"/>
<path d="M1360 20 c-9 -6 -10 -10 -3 -10 6 0 15 5 18 10 8 12 4 12 -15 0z"/>
<path d="M1426 18 c3 -5 10 -6 15 -3 13 9 11 12 -6 12 -8 0 -12 -4 -9 -9z"/>
<path d="M1460 26 c0 -2 7 -7 16 -10 8 -3 12 -2 9 4 -6 10 -25 14 -25 6z"/>
</g>
</svg>
